<mxfile host="app.diagrams.net" modified="2023-03-27T10:57:57.495Z" agent="Mozilla/5.0 (Windows NT 10.0; Win64; x64) AppleWebKit/537.36 (KHTML, like Gecko) Chrome/111.0.0.0 Safari/537.36" etag="2sAv-fwz-JckXd-sxTME" version="21.1.1" type="github">
  <diagram name="Page-1" id="sEcgAAHNGkiF3mssma0l">
    <mxGraphModel dx="1050" dy="483" grid="1" gridSize="10" guides="1" tooltips="1" connect="1" arrows="1" fold="1" page="1" pageScale="1" pageWidth="827" pageHeight="1169" math="0" shadow="0">
      <root>
        <mxCell id="0" />
        <mxCell id="1" parent="0" />
      </root>
    </mxGraphModel>
  </diagram>
</mxfile>
